<svg width="3708" height="1000" viewBox="0 0 3708 1000" fill="none" xmlns="http://www.w3.org/2000/svg">
<circle cx="3433" cy="465" r="275" fill="#FF5454"/>
<rect x="3273.5" y="465.391" width="55" height="165" transform="rotate(-45 3273.5 465.391)" fill="#FFF8E0"/>
<rect x="3550.45" y="344" width="55" height="275" transform="rotate(45 3550.45 344)" fill="#FFF8E0"/>
<path d="M133.206 740H41.2063V195.2H415.606V287.2H130.806V421.6H416.406V512.8H133.206V740ZM696.213 195.2C717.546 195.2 737.813 199.467 757.013 208C776.213 216 793.013 227.2 807.413 241.6C821.813 256 833.013 273.067 841.013 292.8C849.546 312 853.813 332.533 853.813 354.4V581.6C853.813 603.467 849.546 624 841.013 643.2C833.013 662.4 821.813 679.2 807.413 693.6C793.013 708 776.213 719.467 757.013 728C737.813 736 717.546 740 696.213 740H633.813C611.946 740 591.413 736 572.213 728C553.013 719.467 536.213 708 521.813 693.6C507.946 679.2 496.746 662.4 488.213 643.2C479.679 624 475.413 603.467 475.413 581.6V354.4C475.413 332.533 479.679 312 488.213 292.8C496.746 273.067 507.946 256 521.813 241.6C536.213 227.2 553.013 216 572.213 208C591.413 199.467 611.946 195.2 633.813 195.2H696.213ZM756.213 359.2C756.213 340 750.613 323.733 739.413 310.4C728.746 297.067 714.079 290.4 695.413 290.4H634.613C615.946 290.4 601.013 297.067 589.813 310.4C579.146 323.733 573.813 340 573.813 359.2V576C573.813 595.2 579.146 611.733 589.813 625.6C601.013 638.933 615.946 645.6 634.613 645.6H695.413C714.079 645.6 728.746 638.933 739.413 625.6C750.613 611.733 756.213 595.2 756.213 576V359.2ZM1143.87 195.2C1165.2 195.2 1185.47 199.467 1204.67 208C1223.87 216 1240.67 227.2 1255.07 241.6C1269.47 256 1280.67 273.067 1288.67 292.8C1297.2 312 1301.47 332.533 1301.47 354.4V581.6C1301.47 603.467 1297.2 624 1288.67 643.2C1280.67 662.4 1269.47 679.2 1255.07 693.6C1240.67 708 1223.87 719.467 1204.67 728C1185.47 736 1165.2 740 1143.87 740H1081.47C1059.6 740 1039.07 736 1019.87 728C1000.67 719.467 983.869 708 969.469 693.6C955.602 679.2 944.402 662.4 935.869 643.2C927.335 624 923.069 603.467 923.069 581.6V354.4C923.069 332.533 927.335 312 935.869 292.8C944.402 273.067 955.602 256 969.469 241.6C983.869 227.2 1000.67 216 1019.87 208C1039.07 199.467 1059.6 195.2 1081.47 195.2H1143.87ZM1203.87 359.2C1203.87 340 1198.27 323.733 1187.07 310.4C1176.4 297.067 1161.74 290.4 1143.07 290.4H1082.27C1063.6 290.4 1048.67 297.067 1037.47 310.4C1026.8 323.733 1021.47 340 1021.47 359.2V576C1021.47 595.2 1026.8 611.733 1037.47 625.6C1048.67 638.933 1063.6 645.6 1082.27 645.6H1143.07C1161.74 645.6 1176.4 638.933 1187.07 625.6C1198.27 611.733 1203.87 595.2 1203.87 576V359.2ZM1377.93 195.2H1626.73C1644.33 195.2 1660.86 198.933 1676.33 206.4C1692.33 213.867 1706.19 224.267 1717.93 237.6C1729.66 250.933 1738.73 266.4 1745.13 284C1752.06 301.067 1755.53 319.467 1755.53 339.2V596C1755.53 616.267 1752.06 634.933 1745.13 652C1738.73 669.067 1729.66 684.267 1717.93 697.6C1706.19 710.933 1692.33 721.333 1676.33 728.8C1660.86 736.267 1644.33 740 1626.73 740H1377.93V195.2ZM1601.93 639.2C1609.93 639.2 1617.13 637.6 1623.53 634.4C1629.93 631.2 1635.53 626.933 1640.33 621.6C1645.66 616.267 1649.66 610.133 1652.33 603.2C1654.99 595.733 1656.33 587.733 1656.33 579.2V355.2C1656.33 347.2 1654.99 339.733 1652.33 332.8C1649.66 325.333 1645.66 318.933 1640.33 313.6C1635.53 307.733 1629.93 303.2 1623.53 300C1617.13 296.8 1609.93 295.2 1601.93 295.2H1477.93V639.2H1601.93ZM1935.78 520V740H1834.18V195.2H2067.78C2088.58 195.2 2108.04 199.2 2126.18 207.2C2144.31 214.667 2159.78 225.067 2172.58 238.4C2185.91 251.733 2196.31 267.467 2203.78 285.6C2211.78 303.733 2215.77 322.933 2215.77 343.2V367.2C2215.77 387.467 2211.78 406.667 2203.78 424.8C2196.31 442.4 2185.91 458.133 2172.58 472C2159.78 485.333 2144.31 495.733 2126.18 503.2C2108.04 510.667 2088.58 514.4 2067.78 514.4H2040.58L2225.38 740H2109.38L1935.78 520ZM1935.78 290.4V419.2H2051.78C2074.71 419.2 2091.51 413.6 2102.18 402.4C2112.84 391.2 2118.18 375.467 2118.18 355.2C2118.18 336 2112.84 320.533 2102.18 308.8C2091.51 296.533 2074.71 290.4 2051.78 290.4H1935.78ZM2390.5 648H2661.7V740H2287.3V195.2H2661.7V287.2H2390.5V421.6H2661.7V512.8H2390.5V648ZM2964.35 645.6C2979.82 645.6 2991.02 641.067 2997.95 632C3005.42 622.4 3011.02 610.933 3014.75 597.6H3115.55C3113.42 617.333 3108.35 636 3100.35 653.6C3092.35 670.667 3081.68 685.6 3068.35 698.4C3055.55 711.2 3040.08 721.333 3021.95 728.8C3004.35 736.267 2985.42 740 2965.15 740H2896.35C2875.02 740 2854.75 736 2835.55 728C2816.35 719.467 2799.55 708 2785.15 693.6C2770.75 679.2 2759.28 662.4 2750.75 643.2C2742.75 624 2738.75 603.467 2738.75 581.6V354.4C2738.75 332.533 2742.75 312 2750.75 292.8C2759.28 273.067 2770.75 256 2785.15 241.6C2799.55 227.2 2816.35 216 2835.55 208C2854.75 199.467 2875.02 195.2 2896.35 195.2H2965.15C2985.95 195.2 3005.15 198.933 3022.75 206.4C3040.35 213.867 3055.55 224.267 3068.35 237.6C3081.68 250.4 3092.35 265.6 3100.35 283.2C3108.35 300.8 3113.42 319.733 3115.55 340H3014.75C3012.08 326.133 3007.02 314.4 2999.55 304.8C2992.08 295.2 2980.35 290.4 2964.35 290.4H2897.15C2878.48 290.4 2863.55 297.067 2852.35 310.4C2841.68 323.733 2836.35 340 2836.35 359.2V576C2836.35 595.2 2841.68 611.733 2852.35 625.6C2863.55 638.933 2878.48 645.6 2897.15 645.6H2964.35Z" fill="#FEC20B"/>
</svg>
